<?xml version="1.0" encoding="UTF-8" standalone="no"?>
<svg
   xmlns:dc="http://purl.org/dc/elements/1.1/"
   xmlns:cc="http://creativecommons.org/ns#"
   xmlns:rdf="http://www.w3.org/1999/02/22-rdf-syntax-ns#"
   xmlns:svg="http://www.w3.org/2000/svg"
   xmlns="http://www.w3.org/2000/svg"
   id="svg8"
   version="1.1"
   viewBox="0 0 79.374998 79.375002"
   height="300"
   width="300">
  <defs
     id="defs2" />
  <metadata
     id="metadata5">
    <rdf:RDF>
      <cc:Work
         rdf:about="">
        <dc:format>image/svg+xml</dc:format>
        <dc:type
           rdf:resource="http://purl.org/dc/dcmitype/StillImage" />
        <dc:title></dc:title>
      </cc:Work>
    </rdf:RDF>
  </metadata>
  <g
     transform="translate(0,-217.62498)"
     id="layer1">
    <g
       id="g4614">
      <g
         id="g4600">
        <circle
           r="22.524952"
           cy="258.0022"
           cx="40.50338"
           id="path4485"
           style="opacity:0.98000004;fill:#ff6600;fill-opacity:1;stroke:#000080;stroke-width:0;stroke-linecap:butt;stroke-linejoin:miter;stroke-miterlimit:4;stroke-dasharray:none;stroke-opacity:1;paint-order:normal" />
        <path
           transform="matrix(-0.77267137,-0.28124587,0.28124587,-0.77267137,77.805104,31.6223)"
           d="m -52.20564,-242.97743 -5.299518,5.86601 -5.299518,5.86601 -2.430353,-7.52252 -2.430353,-7.52252 7.729871,1.65651 z"
           id="path4487"
           style="opacity:0.98000004;fill:#ff7f2a;fill-opacity:1;stroke:#000080;stroke-width:0;stroke-linecap:butt;stroke-linejoin:miter;stroke-miterlimit:4;stroke-dasharray:none;stroke-opacity:1;paint-order:normal" />
        <path
           transform="matrix(0.62987726,0.5285593,-0.5285593,0.62987726,-55.525527,398.53894)"
           d="m -36.531831,-233.92813 -5.299518,5.86601 -5.299518,5.86601 -2.430353,-7.52252 -2.430353,-7.52252 7.729871,1.65651 z"
           id="path4487-5"
           style="opacity:0.98000004;fill:#ff7f2a;fill-opacity:1;stroke:#000080;stroke-width:0;stroke-linecap:butt;stroke-linejoin:miter;stroke-miterlimit:4;stroke-dasharray:none;stroke-opacity:1;paint-order:normal" />
        <path
           transform="matrix(-0.41113242,-0.71210282,0.71210282,-0.41113242,-132.76872,342.02999)"
           d="m 25.990615,221.85674 -5.299518,5.86601 -5.299518,5.86601 -2.430353,-7.52252 -2.430353,-7.52253 7.729871,1.65652 z"
           id="path4487-8"
           style="opacity:0.98000004;fill:#ff7f2a;fill-opacity:1;stroke:#000080;stroke-width:0;stroke-linecap:butt;stroke-linejoin:miter;stroke-miterlimit:4;stroke-dasharray:none;stroke-opacity:1;paint-order:normal" />
        <path
           transform="matrix(0.14277366,0.80977526,-0.80977526,0.14277366,-187.08535,303.47903)"
           d="m -7.0746804,-250.93521 -5.2995176,5.86601 -5.299518,5.86601 -2.430353,-7.52252 -2.430353,-7.52252 7.729871,1.65651 z"
           id="path4487-9"
           style="opacity:0.98000004;fill:#ff7f2a;fill-opacity:1;stroke:#000080;stroke-width:0;stroke-linecap:butt;stroke-linejoin:miter;stroke-miterlimit:4;stroke-dasharray:none;stroke-opacity:1;paint-order:normal" />
        <path
           transform="matrix(0.14279118,-0.80977217,0.80977217,0.14279118,234.44745,299.75989)"
           d="m -7.0746766,-269.03378 -5.2995174,5.86601 -5.299518,5.86601 -2.430353,-7.52252 -2.430353,-7.52252 7.729871,1.65651 z"
           id="path4487-3"
           style="opacity:0.98000004;fill:#ff7f2a;fill-opacity:1;stroke:#000080;stroke-width:0;stroke-linecap:butt;stroke-linejoin:miter;stroke-miterlimit:4;stroke-dasharray:none;stroke-opacity:1;paint-order:normal" />
        <path
           transform="matrix(-0.41113279,0.7121026,-0.7121026,-0.41113279,233.69709,385.55351)"
           d="m 25.990609,269.30417 -5.299518,5.86601 -5.299518,5.86601 -2.430353,-7.52252 -2.430353,-7.52252 7.729871,1.65651 z"
           id="path4487-6"
           style="opacity:0.98000004;fill:#ff7f2a;fill-opacity:1;stroke:#000080;stroke-width:0;stroke-linecap:butt;stroke-linejoin:miter;stroke-miterlimit:4;stroke-dasharray:none;stroke-opacity:1;paint-order:normal" />
        <path
           transform="matrix(0.62989472,-0.52853849,0.52853849,0.62989472,230.79269,438.90388)"
           d="m -36.531816,-286.04086 -5.299517,5.86601 -5.299518,5.86601 -2.430353,-7.52252 -2.430353,-7.52252 7.729871,1.65651 z"
           id="path4487-2"
           style="opacity:0.98000004;fill:#ff7f2a;fill-opacity:1;stroke:#000080;stroke-width:0;stroke-linecap:butt;stroke-linejoin:miter;stroke-miterlimit:4;stroke-dasharray:none;stroke-opacity:1;paint-order:normal" />
        <path
           transform="matrix(-0.77267667,0.28123131,-0.28123131,-0.77267667,181.71726,461.34692)"
           d="m 60.672347,263.18882 -5.299518,5.86601 -5.299518,5.866 -2.430353,-7.52252 -2.430353,-7.52252 7.729871,1.65651 z"
           id="path4487-86"
           style="opacity:0.98000004;fill:#ff7f2a;fill-opacity:1;stroke:#000080;stroke-width:0;stroke-linecap:butt;stroke-linejoin:miter;stroke-miterlimit:4;stroke-dasharray:none;stroke-opacity:1;paint-order:normal" />
        <path
           d="m 75.740364,248.35534 -4.35761,4.82341 -4.35761,4.82342 -1.998395,-6.18551 -1.998395,-6.18551 6.356005,1.3621 z"
           id="path4487-38"
           style="opacity:0.98000004;fill:#ff7f2a;fill-opacity:1;stroke:#000080;stroke-width:0;stroke-linecap:butt;stroke-linejoin:miter;stroke-miterlimit:4;stroke-dasharray:none;stroke-opacity:1;paint-order:normal" />
      </g>
      <circle
         style="opacity:0.98000004;fill:#ffe680;fill-opacity:1;stroke:#000080;stroke-width:0;stroke-linecap:butt;stroke-linejoin:miter;stroke-miterlimit:4;stroke-dasharray:none;stroke-opacity:1;paint-order:normal"
         id="path4578"
         cx="40.445415"
         cy="258.01279"
         r="19.84375" />
    </g>
  </g>
</svg>
